<svg width="78" height="44" viewBox="0 0 78 25" fill="none" xmlns="http://www.w3.org/2000/svg">
<path d="M6.07786 24.33C9.64186 24.33 11.5559 22.218 11.5559 18.456C11.5559 15.585 10.5989 13.737 7.56286 11.064C5.18686 8.985 4.42786 7.764 4.42786 6.081C4.42786 4.497 5.08786 3.87 6.24286 3.87C7.39786 3.87 8.05786 4.497 8.05786 6.147V7.335H11.4899V6.378C11.4899 2.682 9.74086 0.569999 6.20986 0.569999C2.67886 0.569999 0.797859 2.682 0.797859 6.312C0.797859 8.952 1.78786 10.833 4.82386 13.506C7.19986 15.585 7.92586 16.806 7.92586 18.72C7.92586 20.436 7.19986 21.03 6.04486 21.03C4.88986 21.03 4.16386 20.436 4.16386 18.786V17.202H0.731859V18.522C0.731859 22.218 2.51386 24.33 6.07786 24.33ZM18.3562 24.33C21.9202 24.33 23.8342 22.218 23.8342 18.456C23.8342 15.585 22.8772 13.737 19.8412 11.064C17.4652 8.985 16.7062 7.764 16.7062 6.081C16.7062 4.497 17.3662 3.87 18.5212 3.87C19.6762 3.87 20.3362 4.497 20.3362 6.147V7.335H23.7682V6.378C23.7682 2.682 22.0192 0.569999 18.4882 0.569999C14.9572 0.569999 13.0762 2.682 13.0762 6.312C13.0762 8.952 14.0662 10.833 17.1022 13.506C19.4782 15.585 20.2042 16.806 20.2042 18.72C20.2042 20.436 19.4782 21.03 18.3232 21.03C17.1682 21.03 16.4422 20.436 16.4422 18.786V17.202H13.0102V18.522C13.0102 22.218 14.7922 24.33 18.3562 24.33Z" fill="#555555"/>
<path d="M25.9155 24H31.6245C35.2545 24 37.1355 22.086 37.1355 18.522V16.542C37.1355 14.1 36.3765 12.384 34.4295 11.724V11.658C36.0465 10.998 36.7725 9.513 36.7725 7.137V6.213C36.7725 2.649 35.1555 0.899998 31.3935 0.899998H25.9155V24ZM29.5455 10.305V4.2H31.2945C32.5815 4.2 33.1425 4.926 33.1425 6.576V7.863C33.1425 9.711 32.3175 10.305 30.9645 10.305H29.5455ZM29.5455 20.7V13.605H31.1625C32.8125 13.605 33.5055 14.265 33.5055 16.41V18.423C33.5055 20.139 32.8455 20.7 31.6245 20.7H29.5455ZM44.5043 24.33C48.0683 24.33 50.0153 22.218 50.0153 18.522V6.378C50.0153 2.682 48.0683 0.569999 44.5043 0.569999C40.9403 0.569999 38.9933 2.682 38.9933 6.378V18.522C38.9933 22.218 40.9403 24.33 44.5043 24.33ZM44.5043 21.03C43.3493 21.03 42.6233 20.403 42.6233 18.753V6.147C42.6233 4.497 43.3493 3.87 44.5043 3.87C45.6593 3.87 46.3853 4.497 46.3853 6.147V18.753C46.3853 20.403 45.6593 21.03 44.5043 21.03ZM57.7172 24.33C61.2812 24.33 63.2282 22.218 63.2282 18.522V6.378C63.2282 2.682 61.2812 0.569999 57.7172 0.569999C54.1532 0.569999 52.2062 2.682 52.2062 6.378V18.522C52.2062 22.218 54.1532 24.33 57.7172 24.33ZM57.7172 21.03C56.5622 21.03 55.8362 20.403 55.8362 18.753V6.147C55.8362 4.497 56.5622 3.87 57.7172 3.87C58.8722 3.87 59.5982 4.497 59.5982 6.147V18.753C59.5982 20.403 58.8722 21.03 57.7172 21.03ZM65.6831 24H69.3131V16.641L70.7651 13.704L73.8341 24H77.6291L73.2401 9.381L77.5631 0.899998H73.9331L69.3131 10.635V0.899998H65.6831V24Z" fill="#A076F2"/>
</svg>
